# xmcd CD database file
#
# Track frame offsets:
#	150
#	15282
#	37452
#	55747
#	76302
#	97182
#	124210
#	144135
#	160207
#	181647
#	212920
#	229342
#
# Disc length: 3283 seconds
#
# Revision: 0
# Processed by: cddbd v1.5.2PL0 Copyright (c) Steve Scherf et al.
# Submitted via: CDex 1.51
#
DISCID=9d0cd10c
DTITLE=J.J. Blues Band - 10 A.M. At Bader's
DYEAR=1900
DGENRE=Blues
TTITLE0=The Colours In My Head
TTITLE1=E-mail To John Mayall
TTITLE2=Blowing Away My Mind
TTITLE3=Don't You Hear That Call
TTITLE4=Walk My Way
TTITLE5=That's Life
TTITLE6=Beast
TTITLE7=Cross The Water
TTITLE8=E-minor's Lullaby
TTITLE9=Lies Ain't A Friend Of Mine
TTITLE10=Movin' On
TTITLE11=Down Under Blues
EXTD=
EXTT0=
EXTT1=
EXTT2=
EXTT3=
EXTT4=
EXTT5=
EXTT6=
EXTT7=
EXTT8=
EXTT9=
EXTT10=
EXTT11=
PLAYORDER=
